nColumns=19
nRows=83
DataType=double
version=3
OpenSimVersion=4.1
endheader
time	ground_force_1_vx	ground_force_1_vy	ground_force_1_vz	ground_force_1_px	ground_force_1_py	ground_force_1_pz	ground_force_1_mx	ground_force_1_my	ground_force_1_mz	ground_force_2_vx	ground_force_2_vy	ground_force_2_vz	ground_force_2_px	ground_force_2_py	ground_force_2_pz	ground_force_2_mx	ground_force_2_my	ground_force_2_mz
0.01	7.74298	37.0573	9.13553	0.008695	0.006	-0.154797	0	0.745407	0	0	0	0	0.707275	0	-0.169878	0	0	0
0.02	7.88082	59.5005	11.6206	0.024373	0.006	-0.154439	0	0.681949	0	0	0	0	0.707275	0	-0.169878	0	0	0
0.03	7.42605	87.1142	14.3452	0.034321	0.006	-0.154049	0	0.623742	0	0	0	0	0.707275	0	-0.169878	0	0	0
0.04	6.16125	120.011	17.2041	0.041653	0.006	-0.153644	0	0.552781	0	0	0	0	0.707275	0	-0.169878	0	0	0
0.05	3.83991	157.98	20.0446	0.047632	0.006	-0.15322	0	0.458687	0	0	0	0	0.707275	0	-0.169878	0	0	0
0.06	0.251242	200.533	22.6755	0.052881	0.006	-0.152763	0	0.333478	0	0	0	0	0.707275	0	-0.169878	0	0	0
0.07	-4.67808	247.027	24.8645	0.057736	0.006	-0.152245	0	0.170519	0	0	0	0	0.707275	0	-0.169878	0	0	0
0.08	-10.868	296.728	26.3465	0.062378	0.006	-0.151639	0	-0.034496	0	0	0	0	0.707275	0	-0.169878	0	0	0
0.09	-18.1422	348.748	26.8459	0.066907	0.006	-0.150924	0	-0.282449	0	0	0	0	0.707275	0	-0.169878	0	0	0
0.1	-26.2786	402.002	26.1185	0.07138	0.006	-0.15009	0	-0.569883	0	0	0	0	0.707275	0	-0.169878	0	0	0
0.11	-35.0175	455.235	24.0048	0.075825	0.006	-0.149145	0	-0.887802	0	0	0	0	0.707275	0	-0.169878	0	0	0
0.12	-44.0543	507.121	20.4758	0.080252	0.006	-0.148106	0	-1.22009	0	0	0	0	0.707275	0	-0.169878	0	0	0
0.13	-53.0461	556.335	15.6603	0.084649	0.006	-0.147003	0	-1.54368	0	0	0	0	0.707275	0	-0.169878	0	0	0
0.14	-61.6265	601.612	9.8432	0.088998	0.006	-0.14587	0	-1.83143	0	0	0	0	0.707275	0	-0.169878	0	0	0
0.15	-69.4266	641.83	3.42472	0.093275	0.006	-0.144741	0	-2.05803	0	0	0	0	0.707275	0	-0.169878	0	0	0
0.16	-76.1118	676.107	-3.14972	0.097464	0.006	-0.143647	0	-2.20624	0	0	0	0	0.707275	0	-0.169878	0	0	0
0.17	-81.4178	703.861	-9.45815	0.101556	0.006	-0.14261	0	-2.26977	0	0	0	0	0.707275	0	-0.169878	0	0	0
0.18	-85.1813	724.835	-15.1601	0.105556	0.006	-0.141643	0	-2.25332	0	0	0	0	0.707275	0	-0.169878	0	0	0
0.19	-87.3652	739.093	-20.0234	0.109482	0.006	-0.140747	0	-2.16952	0	0	0	0	0.707275	0	-0.169878	0	0	0
0.2	-88.0375	746.974	-23.9154	0.113363	0.006	-0.13992	0	-2.0339	0	0	0	0	0.707275	0	-0.169878	0	0	0
0.21	-87.3366	749.046	-26.7877	0.117232	0.006	-0.139155	0	-1.86168	0	0	0	0	0.707275	0	-0.169878	0	0	0
0.22	-85.4409	746.057	-28.6613	0.121121	0.006	-0.138444	0	-1.66682	0	0	0	0	0.707275	0	-0.169878	0	0	0
0.23	-82.5424	738.887	-29.6098	0.125058	0.006	-0.13778	0	-1.46134	0	0	0	0	0.707275	0	-0.169878	0	0	0
0.24	-78.8337	728.475	-29.7437	0.129064	0.006	-0.137157	0	-1.25543	0	0	0	0	0.707275	0	-0.169878	0	0	0
0.25	-74.5077	715.753	-29.2041	0.133156	0.006	-0.136567	0	-1.05819	0	0	0	0	0.707275	0	-0.169878	0	0	0
0.26	-69.7548	701.602	-28.158	0.137342	0.006	-0.136006	0	-0.877973	0	0	0	0	0.707275	0	-0.169878	0	0	0
0.27	-64.7517	686.818	-26.7842	0.141627	0.006	-0.135468	0	-0.721882	0	0	0	0	0.707275	0	-0.169878	0	0	0
0.28	-59.6523	672.089	-25.2475	0.14601	0.006	-0.134947	0	-0.595298	0	0	0	0	0.707275	0	-0.169878	0	0	0
0.29	-54.5827	657.991	-23.6758	0.150482	0.006	-0.134445	0	-0.501754	0	0	0	0	0.707275	0	-0.169878	0	0	0
0.3	-49.6356	644.988	-22.1496	0.155029	0.006	-0.133965	0	-0.443237	0	0	0	0	0.707275	0	-0.169878	0	0	0
0.31	-44.8635	633.445	-20.7087	0.159629	0.006	-0.133517	0	-0.420621	0	0	0	0	0.707275	0	-0.169878	0	0	0
0.32	-40.2795	623.637	-19.3688	0.164257	0.006	-0.133112	0	-0.433565	0	0	0	0	0.707275	0	-0.169878	0	0	0
0.33	-35.869	615.759	-18.1406	0.168886	0.006	-0.132759	0	-0.4804	0	0	0	0	0.707275	0	-0.169878	0	0	0
0.34	-31.6023	609.93	-17.0414	0.173495	0.006	-0.132466	0	-0.558191	0	0	0	0	0.707275	0	-0.169878	0	0	0
0.35	-27.4417	606.212	-16.0959	0.178069	0.006	-0.132235	0	-0.662924	0	0	0	0	0.707275	0	-0.169878	0	0	0
0.36	-23.3436	604.631	-15.3305	0.182602	0.006	-0.132067	0	-0.789963	0	0	0	0	0.707275	0	-0.169878	0	0	0
0.37	-19.2603	605.211	-14.7666	0.187095	0.006	-0.131961	0	-0.934687	0	0	0	0	0.707275	0	-0.169878	0	0	0
0.38	-15.1435	607.989	-14.4157	0.191557	0.006	-0.131917	0	-1.09298	0	0	0	0	0.707275	0	-0.169878	0	0	0
0.39	-10.9457	613.022	-14.2769	0.195999	0.006	-0.131933	0	-1.26156	0	0	0	0	0.707275	0	-0.169878	0	0	0
0.4	-6.62057	620.368	-14.3384	0.200431	0.006	-0.13201	0	-1.43777	0	0	0	0	0.707275	0	-0.169878	0	0	0
0.41	-2.12406	630.059	-14.581	0.204866	0.006	-0.132146	0	-1.61909	0	0	0	0	0.707275	0	-0.169878	0	0	0
0.42	2.58286	642.073	-14.9818	0.20931	0.006	-0.132337	0	-1.80262	0	0	0	0	0.707275	0	-0.169878	0	0	0
0.43	7.53293	656.306	-15.515	0.213763	0.006	-0.132581	0	-1.98455	0	0	0	0	0.707275	0	-0.169878	0	0	0
0.44	12.7554	672.551	-16.1531	0.218219	0.006	-0.13287	0	-2.15994	0	0	0	0	0.707275	0	-0.169878	0	0	0
0.45	18.281	690.48	-16.867	0.222663	0.006	-0.133198	0	-2.3231	0	0	0	0	0.707275	0	-0.169878	0	0	0
0.46	24.1437	709.637	-17.6242	0.227073	0.006	-0.133554	0	-2.46815	0	0	0	0	0.707275	0	-0.169878	0	0	0
0.47	30.3772	729.423	-18.3893	0.231426	0.006	-0.133931	0	-2.58981	0	0	0	0	0.707275	0	-0.169878	0	0	0
0.48	37.0064	749.103	-19.1243	0.235695	0.006	-0.134319	0	-2.68355	0	0	0	0	0.707275	0	-0.169878	0	0	0
0.49	44.0358	767.827	-19.7913	0.23986	0.006	-0.134711	0	-2.7456	0	0	0	0	0.707275	0	-0.169878	0	0	0
0.5	51.4368	784.66	-20.3505	0.243908	0.006	-0.135101	0	-2.77346	0	0	0	0	0.707275	0	-0.169878	0	0	0
0.51	59.1447	798.62	-20.7575	0.247829	0.006	-0.135482	0	-2.76663	0	0	0	0	0.707275	0	-0.169878	0	0	0
0.52	67.0526	808.729	-20.9652	0.25162	0.006	-0.135853	0	-2.72687	0	0	0	0	0.707275	0	-0.169878	0	0	0
0.53	75.0085	814.035	-20.929	0.255284	0.006	-0.136212	0	-2.65792	0	0	0	0	0.707275	0	-0.169878	0	0	0
0.54	82.8135	813.654	-20.6084	0.258828	0.006	-0.136559	0	-2.56522	0	1.273	26.7247	-9.05279	0.719797	0.006	-0.176468	0	-0.211668	0
0.55	90.2198	806.797	-19.9713	0.262263	0.006	-0.136895	0	-2.45533	0	-0.773808	50.4858	-10.9797	0.766885	0.006	-0.200798	0	-0.000969	0
0.56	96.937	792.809	-18.9969	0.265604	0.006	-0.137221	0	-2.33483	0	-3.75251	80.4182	-13.0231	0.788549	0.006	-0.211464	0	0.100711	0
0.57	102.646	771.218	-17.6773	0.268869	0.006	-0.137542	0	-2.20962	0	-7.83658	116.896	-15.0794	0.801471	0.006	-0.217453	0	0.175392	0
0.58	107.011	741.789	-16.0197	0.272077	0.006	-0.137859	0	-2.08432	0	-13.1901	159.961	-16.9996	0.810437	0.006	-0.221327	0	0.248856	0
0.59	109.697	704.584	-14.0523	0.275252	0.006	-0.138176	0	-1.96164	0	-19.9538	209.195	-18.5848	0.817359	0.006	-0.224097	0	0.333068	0
0.6	110.407	660.008	-11.8317	0.278418	0.006	-0.138495	0	-1.84158	0	-28.1968	263.728	-19.6056	0.823155	0.006	-0.226247	0	0.435095	0
0.61	108.929	608.854	-9.44826	0.281603	0.006	-0.138816	0	-1.72185	0	-37.8303	322.382	-19.8348	0.82831	0.006	-0.228036	0	0.559317	0
0.62	105.184	552.302	-7.02278	0.284837	0.006	-0.139135	0	-1.59892	0	-48.5906	383.775	-19.0797	0.833088	0.006	-0.229616	0	0.707356	0
0.63	99.2432	491.879	-4.69475	0.288155	0.006	-0.139446	0	-1.46913	0	-60.086	446.327	-17.2039	0.837629	0.006	-0.231075	0	0.87685	0
0.64	91.349	429.364	-2.59754	0.291601	0.006	-0.139738	0	-1.3302	0	-71.8523	508.263	-14.1561	0.842006	0.006	-0.232464	0	1.05953	0
0.65	81.8985	366.652	-0.833654	0.295237	0.006	-0.140003	0	-1.18264	0	-83.3792	567.699	-10.0065	0.846248	0.006	-0.23381	0	1.24022	0
0.66	71.4005	305.622	0.540757	0.299156	0.006	-0.140232	0	-1.02958	0	-94.1322	622.794	-4.96827	0.85036	0.006	-0.235121	0	1.39862	0
0.67	60.4243	247.973	1.52164	0.303507	0.006	-0.140416	0	-0.876296	0	-103.599	671.91	0.630398	0.854338	0.006	-0.236395	0	1.5153	0
0.68	49.5354	195.091	2.14835	0.308536	0.006	-0.140545	0	-0.728683	0	-111.343	713.707	6.40734	0.858171	0.006	-0.237624	0	1.57815	0
0.69	39.226	147.966	2.48558	0.314682	0.006	-0.140598	0	-0.592263	0	-117.035	747.217	11.9867	0.861851	0.006	-0.238803	0	1.58452	0
0.7	29.8665	107.172	2.60468	0.322788	0.006	-0.140528	0	-0.471938	0	-120.471	771.917	17.0502	0.865373	0.006	-0.239929	0	1.54146	0
0.71	21.6851	72.8934	2.56984	0.334676	0.006	-0.140226	0	-0.373035	0	-121.605	787.752	21.364	0.868747	0.006	-0.241005	0	1.46386	0
0.72	14.7702	44.9781	2.43101	0.355104	0.006	-0.139398	0	-0.304813	0	-120.534	795.082	24.7721	0.871987	0.006	-0.242034	0	1.3697	0
0.73	9.10842	22.9983	2.22657	0.401627	0.006	-0.13692	0	-0.29701	0	-117.463	794.6	27.1965	0.875116	0.006	-0.243023	0	1.27657	0
0.74	0	0	0	0.43843	0	-0.138047	0	0	0	-112.68	787.254	28.6449	0.878156	0.006	-0.243981	0	1.20064	0
0.75	0	0	0	0.470124	0	-0.139833	0	0	0	-106.524	774.179	29.2061	0.881136	0.006	-0.244916	0	1.15536	0
0.76	0	0	0	0.501818	0	-0.141618	0	0	0	-99.354	756.64	29.0254	0.884084	0.006	-0.24584	0	1.14995	0
0.77	0	0	0	0.533512	0	-0.143404	0	0	0	-91.5334	735.962	28.2766	0.887028	0.006	-0.246764	0	1.18921	0
0.78	0	0	0	0.565206	0	-0.145189	0	0	0	-83.4081	713.476	27.1362	0.889993	0.006	-0.247693	0	1.27425	0
0.79	0	0	0	0.5969	0	-0.146975	0	0	0	-75.288	690.442	25.762	0.893	0.006	-0.248628	0	1.40356	0
0.8	0	0	0	0.628594	0	-0.14876	0	0	0	-67.4288	667.991	24.2773	0.896062	0.006	-0.249564	0	1.57448	0
0.81	0	0	0	0.660288	0	-0.150546	0	0	0	-60.0227	647.081	22.7648	0.899188	0.006	-0.250487	0	1.78468	0
0.82	0	0	0	0.691982	0	-0.152331	0	0	0	-53.1984	628.473	21.2712	0.902379	0.006	-0.251378	0	2.03277	0
0.83	0	0	0	0.723676	0	-0.154117	0	0	0	-47.0292	612.725	19.8197	0.905638	0.006	-0.252214	0	2.31819	0
